<svg width="27" height="35" viewBox="0 0 27 35" fill="none" xmlns="http://www.w3.org/2000/svg">
<path d="M13.5 19C16.5376 19 19 16.5376 19 13.5C19 10.4624 16.5376 8 13.5 8C10.4624 8 8 10.4624 8 13.5C8 16.5376 10.4624 19 13.5 19Z" fill="#252525"/>
<path d="M26.5363 13.0786C26.7183 12.8393 26.8511 12.5655 26.9269 12.2733C27.0026 11.9811 27.0197 11.6764 26.9772 11.3774C26.9347 11.0784 26.8335 10.791 26.6794 10.5323C26.5254 10.2737 26.3217 10.049 26.0805 9.87157L25.1365 9.17712C24.8253 8.94831 24.5777 8.64172 24.418 8.28719C24.2582 7.93266 24.1917 7.54225 24.2249 7.15394L24.3247 5.97558C24.352 5.67364 24.319 5.36923 24.2277 5.08049C24.1364 4.79176 23.9887 4.52461 23.7934 4.29498C23.5981 4.06535 23.3592 3.87795 23.0909 3.74393C22.8226 3.60992 22.5304 3.53205 22.2318 3.51496L21.0666 3.44934C20.6829 3.42718 20.3113 3.30476 19.9881 3.09396C19.6648 2.88317 19.4008 2.59117 19.2218 2.24637L18.6824 1.19923C18.5425 0.932177 18.3512 0.696315 18.1197 0.505638C17.8882 0.31496 17.6213 0.17335 17.3348 0.0892054C17.0483 0.005061 16.748 -0.0199038 16.4518 0.0157916C16.1556 0.0514869 15.8695 0.147116 15.6105 0.297006L14.5964 0.879353C14.2616 1.07153 13.8834 1.17253 13.4987 1.17253C13.1139 1.17253 12.7357 1.07153 12.4009 0.879353L11.3868 0.297006C11.1272 0.147966 10.8408 0.0532986 10.5444 0.0186197C10.248 -0.0160593 9.94782 0.00995681 9.66156 0.0951245C9.3753 0.180292 9.10883 0.322876 8.87796 0.514418C8.64709 0.705959 8.45653 0.942556 8.31757 1.21017L7.77815 2.2573C7.59916 2.60211 7.3352 2.8941 7.01193 3.1049C6.68867 3.31569 6.3171 3.43812 5.93336 3.46027L4.76822 3.52589C4.46959 3.54298 4.17742 3.62086 3.90912 3.75487C3.64082 3.88888 3.40189 4.07629 3.20657 4.30592C3.01126 4.53555 2.86356 4.80269 2.77228 5.09143C2.681 5.38017 2.64802 5.68458 2.67529 5.98651L2.77508 7.16488C2.80828 7.55319 2.74177 7.9436 2.58202 8.29813C2.42228 8.65266 2.17473 8.95924 1.86347 9.18806L0.919492 9.8825C0.678255 10.0599 0.474592 10.2846 0.320563 10.5433C0.166534 10.8019 0.06527 11.0893 0.022768 11.3883C-0.019734 11.6874 -0.00261005 11.992 0.073126 12.2842C0.148862 12.5764 0.28167 12.8503 0.463686 13.0895L1.17571 14.0246C1.41074 14.3329 1.56306 14.6976 1.61788 15.0833C1.67271 15.4689 1.62816 15.8624 1.48857 16.2254L1.06513 17.3191C0.956888 17.6005 0.905446 17.9011 0.913851 18.2031C0.922257 18.505 0.990339 18.8022 1.11407 19.077C1.2378 19.3518 1.41466 19.5987 1.63418 19.803C1.8537 20.0073 2.11143 20.1648 2.39209 20.2663L3.4898 20.6628C3.85223 20.7934 4.17511 21.0169 4.42703 21.3116C4.67895 21.6062 4.85131 21.962 4.92735 22.3442L5.13772 23.3831L2.33546 32.6159L6.78024 31.2052L9.54743 35L12.0746 26.6257C12.4529 26.9439 12.9243 27.1264 13.4156 27.1447C13.9068 27.163 14.3903 27.0161 14.7906 26.7268L17.4499 35L20.2171 31.2052L24.6618 32.6159L21.7922 23.6921C21.811 23.6292 21.8272 23.569 21.8407 23.5034L22.07 22.3442C22.146 21.962 22.3184 21.6062 22.5703 21.3116C22.8222 21.0169 23.1451 20.7934 23.5075 20.6628L24.6052 20.2663C24.8859 20.1648 25.1436 20.0073 25.3631 19.803C25.5826 19.5987 25.7595 19.3518 25.8832 19.077C26.007 18.8022 26.075 18.505 26.0835 18.2031C26.0919 17.9011 26.0404 17.6005 25.9322 17.3191L25.5087 16.2254C25.3691 15.8624 25.3246 15.4689 25.3794 15.0833C25.4342 14.6976 25.5866 14.3329 25.8216 14.0246L26.5363 13.0786ZM5.7985 13.5762C5.7985 12.0324 6.25011 10.5232 7.09621 9.23959C7.94231 7.95596 9.14491 6.95549 10.5519 6.3647C11.9589 5.7739 13.5072 5.61933 15.0009 5.92051C16.4946 6.22169 17.8666 6.96511 18.9435 8.05675C20.0204 9.14839 20.7537 10.5392 21.0508 12.0534C21.348 13.5675 21.1955 15.137 20.6127 16.5633C20.0299 17.9896 19.0429 19.2086 17.7766 20.0663C16.5103 20.924 15.0216 21.3818 13.4987 21.3818C11.4571 21.3796 9.49978 20.5566 8.05619 19.0932C6.61259 17.6298 5.80064 15.6457 5.7985 13.5762Z" fill="#252525"/>
</svg>
